<?xml version="1.0" encoding="UTF-8"?>
<svg width="240" height="60" viewBox="0 0 240 60" xmlns="http://www.w3.org/2000/svg">
  <!-- Modern Cotton Icon -->
  <g transform="translate(15, 12)">
    <!-- Outer circle -->
    <circle cx="18" cy="18" r="18" fill="#10B981" opacity="0.1"/>
    <!-- Inner circle -->
    <circle cx="18" cy="18" r="12" fill="#10B981" opacity="0.2"/>
    <!-- Cotton flower -->
    <path d="M18 6 C18 6, 24 12, 24 18 C24 24, 18 30, 18 30 C18 30, 12 24, 12 18 C12 12, 18 6, 18 6" 
          fill="#10B981" stroke="#10B981" stroke-width="1.5"/>
    <path d="M18 12 C18 12, 21.6 15.6, 21.6 18 C21.6 20.4, 18 24, 18 24 C18 24, 14.4 20.4, 14.4 18 C14.4 15.6, 18 12, 18 12" 
          fill="white" stroke="white" stroke-width="1"/>
  </g>
  
  <!-- Text "CottonRoad" -->
  <text x="58" y="42" font-family="'Inter', sans-serif" font-size="34" font-weight="600" letter-spacing="-0.5" fill="#1F2937">
    Cotton<tspan fill="#10B981">Road</tspan>
  </text>
</svg> 